#!OML:ASF H:\GeneralSubjects\Female5\Project 1\Capture day 1\Session 1\Female5.ASF
:FULLY-SPECIFIED
:DEGREES
609
root -12.5786 16.0048 1.01625 -714.844 -34.6899 2.31047
lowerback 16.513 -0.988469 -10.754
upperback -11.1972 -3.2322 6.36662
thorax -21.6368 1.01204 15.0584
lowerneck -9.67495 -1.87676 -6.72046
upperneck 47.4529 -1.15574 -3.45195
head 20.5268 -2.61438 -0.951284
rclavicle -4.73108e-014 -2.70347e-014
rhumerus -56.9279 37.5019 -89.6363
rradius 36.5868
rwrist -14.4413
rhand -23.4736 -18.9471
rfingers 7.12502
rthumb 2.98575 -48.906
lclavicle -4.73108e-014 -2.70347e-014
lhumerus -51.7994 10.1948 74.3407
lradius 37.8894
lwrist -4.6905
lhand -25.2978 27.8463
lfingers 7.12502
lthumb 1.22393 57.8225
rfemur -27.924 -8.03856 26.2773
rtibia 45.9977
rfoot -16.5675 -19.5142
rtoes -16.2078
lfemur -6.35747 -17.3315 -33.2415
ltibia 10.0056
lfoot -17.3655 -16.4471
ltoes -5.90323
610
root -12.7543 16.0025 1.21916 -715.019 -34.9801 2.73317
lowerback 16.5162 -1.07067 -10.9252
upperback -11.1868 -3.42514 6.19897
thorax -21.5462 0.921198 15.0019
lowerneck -9.44337 -1.96657 -6.70027
upperneck 47.3506 -1.45151 -3.26225
head 20.3819 -2.70536 -0.903125
rclavicle 2.14687e-014 8.26944e-014
rhumerus -56.4957 36.0813 -88.3218
rradius 35.9584
rwrist -14.6268
rhand -23.1473 -17.9446
rfingers 7.12502
rthumb 3.30086 -47.8988
lclavicle 2.14687e-014 8.26944e-014
lhumerus -50.7515 10.3401 73.7978
lradius 38.6164
lwrist -4.86862
lhand -25.4982 27.1642
lfingers 7.12502
lthumb 1.03041 57.1414
rfemur -29.819 -7.97755 26.2577
rtibia 42.4787
rfoot -17.1561 -19.9375
rtoes -18.1416
lfemur -4.56255 -17.655 -33.9845
ltibia 8.70731
lfoot -17.7988 -17.4161
ltoes -5.78773
611
root -12.9369 15.9962 1.42107 -715.203 -35.1975 3.23338
lowerback 16.4711 -1.15028 -11.2017
upperback -11.1999 -3.63544 6.05624
thorax -21.4448 0.842583 15.0447
lowerneck -9.45165 -1.99276 -6.57965
upperneck 47.3832 -1.5958 -3.17641
head 20.4047 -2.73489 -0.911666
rclavicle -4.96962e-014 -9.54166e-015
rhumerus -56.169 34.8062 -86.9462
rradius 35.408
rwrist -14.8146
rhand -22.6893 -18.747
rfingers 7.12502
rthumb 3.74314 -48.6939
lclavicle -4.96962e-014 -9.54166e-015
lhumerus -49.7247 9.52237 74.0006
lradius 39.6895
lwrist -3.9498
lhand -25.0863 28.0263
lfingers 7.12502
lthumb 1.42822 58.0013
rfemur -30.5145 -7.07935 26.007
rtibia 37.2118
rfoot -17.4832 -20.7552
rtoes -20.5538
lfemur -2.94444 -17.8951 -34.7395
ltibia 7.71901
lfoot -17.9431 -18.4857
ltoes -5.82038
612
root -13.1255 15.9856 1.62427 -715.434 -35.3982 3.77478
lowerback 16.4249 -1.21861 -11.485
upperback -11.2218 -3.83395 5.90099
thorax -21.3589 0.77075 15.0726
lowerneck -9.43558 -2.06181 -6.64674
upperneck 47.403 -1.81937 -2.9514
head 20.4208 -2.81099 -0.828877
rclavicle -3.04141e-014 3.02153e-014
rhumerus -56.212 33.6801 -85.7918
rradius 35.1163
rwrist -15.105
rhand -23.2399 -19.8186
rfingers 7.12502
rthumb 3.21138 -49.7742
lclavicle -3.04141e-014 3.02153e-014
lhumerus -48.6684 8.93158 74.1786
lradius 40.4775
lwrist -3.37615
lhand -23.561 29.585
lfingers 7.12502
lthumb 2.90137 59.545
rfemur -30.6689 -6.14422 25.5659
rtibia 31.1214
rfoot -18.6869 -21.7617
rtoes -17.8872
lfemur -1.31863 -18.2849 -35.5615
ltibia 6.95594
lfoot -17.5088 -19.4362
ltoes -6.75734
613
root -13.3247 15.9694 1.82862 -715.481 -35.5814 4.13009
lowerback 16.2434 -1.32236 -11.6615
upperback -11.2738 -4.03241 5.7866
thorax -21.2265 0.681188 15.0773
lowerneck -9.35315 -2.15183 -6.72814
upperneck 47.3764 -2.09361 -2.69738
head 20.3859 -2.90524 -0.73411
rclavicle -1.09133e-013 -1.74931e-014
rhumerus -56.3852 32.5602 -84.7387
rradius 34.8432
rwrist -15.3749
rhand -23.8489 -19.5208
rfingers 7.12502
rthumb 2.62331 -49.4845
lclavicle -1.09133e-013 -1.74931e-014
lhumerus -47.8083 8.12851 74.3816
lradius 41.1733
lwrist -2.71237
lhand -23.4068 29.6031
lfingers 7.12502
lthumb 3.05023 59.561
rfemur -30.7538 -5.22606 25.2042
rtibia 24.9012
rfoot -22.0827 -22.1446
rtoes -10.0024
lfemur 0.268268 -18.9895 -36.2287
ltibia 6.29655
lfoot -17.3164 -20.5777
ltoes -8.08962
614
root -13.5331 15.9487 2.03154 -715.423 -35.6527 4.41799
lowerback 15.9811 -1.47088 -11.7951
upperback -11.3542 -4.26943 5.69842
thorax -21.0652 0.567909 15.0946
lowerneck -9.32247 -2.25509 -6.70242
upperneck 47.3925 -2.3363 -2.62246
head 20.3932 -2.99239 -0.748462
rclavicle -2.52457e-014 -5.88403e-014
rhumerus -56.647 31.6625 -83.8233
rradius 34.5357
rwrist -15.6902
rhand -23.8992 -19.2469
rfingers 7.12502
rthumb 2.57471 -49.2111
lclavicle -2.52457e-014 -5.88403e-014
lhumerus -46.9173 8.59945 73.9212
lradius 41.2769
lwrist -3.86448
lhand -24.1185 28.8375
lfingers 7.12502
lthumb 2.3629 58.8041
rfemur -30.0988 -3.1437 24.4332
rtibia 17.6766
rfoot -24.2062 -23.7791
rtoes -9.05451
lfemur 1.7509 -19.4879 -36.7401
ltibia 5.67475
lfoot -17.3093 -21.8334
ltoes -8.8598
